<svg width="196" height="48" viewBox="0 0 196 48" fill="none" xmlns="http://www.w3.org/2000/svg">
<path d="M11 42.48C8.97333 42.48 7.28 42.12 5.92 41.4C4.56 40.68 3.53333 39.5733 2.84 38.08C2.14667 36.56 1.76 34.6 1.68 32.2L7.8 31.28C7.82667 32.6667 7.94667 33.7867 8.16 34.64C8.4 35.4933 8.72 36.1067 9.12 36.48C9.54667 36.8533 10.0533 37.04 10.64 37.04C11.3867 37.04 11.8667 36.7867 12.08 36.28C12.32 35.7733 12.44 35.24 12.44 34.68C12.44 33.3467 12.12 32.2267 11.48 31.32C10.84 30.3867 9.97333 29.4533 8.88 28.52L6.08 26.08C4.85333 25.04 3.81333 23.8667 2.96 22.56C2.13333 21.2267 1.72 19.5867 1.72 17.64C1.72 14.8933 2.53333 12.8 4.16 11.36C5.78667 9.89333 8 9.16 10.8 9.16C12.5333 9.16 13.92 9.45333 14.96 10.04C16.0267 10.6267 16.8267 11.4 17.36 12.36C17.92 13.2933 18.2933 14.2933 18.48 15.36C18.6933 16.4 18.8133 17.4 18.84 18.36L12.68 19.12C12.6533 18.16 12.5867 17.3333 12.48 16.64C12.4 15.92 12.2133 15.3733 11.92 15C11.6267 14.6 11.1733 14.4 10.56 14.4C9.89333 14.4 9.4 14.68 9.08 15.24C8.78667 15.8 8.64 16.36 8.64 16.92C8.64 18.12 8.92 19.1067 9.48 19.88C10.0667 20.6267 10.8267 21.4133 11.76 22.24L14.44 24.6C15.8533 25.8 17.04 27.16 18 28.68C18.9867 30.2 19.48 32.08 19.48 34.32C19.48 35.84 19.1333 37.2267 18.44 38.48C17.7467 39.7067 16.76 40.68 15.48 41.4C14.2267 42.12 12.7333 42.48 11 42.48ZM25.8669 42V14.92H20.9869V9.6H37.9069V14.92H33.0669V42H25.8669ZM40.7594 42V9.6H49.6794C51.866 9.6 53.7594 9.84 55.3594 10.32C56.9594 10.8 58.1994 11.6667 59.0794 12.92C59.986 14.1467 60.4394 15.8933 60.4394 18.16C60.4394 19.4933 60.3327 20.68 60.1194 21.72C59.906 22.76 59.506 23.6667 58.9194 24.44C58.3594 25.1867 57.546 25.8133 56.4794 26.32L60.9194 42H53.5194L49.9594 27.48H47.9194V42H40.7594ZM47.9194 23.36H49.9194C50.9327 23.36 51.7194 23.1867 52.2794 22.84C52.8394 22.4667 53.226 21.9467 53.4394 21.28C53.6794 20.5867 53.7994 19.76 53.7994 18.8C53.7994 17.4133 53.546 16.3333 53.0394 15.56C52.5327 14.7867 51.5994 14.4 50.2394 14.4H47.9194V23.36ZM64.7838 42V9.6H71.9438V42H64.7838ZM81.095 42L75.255 9.6H81.375L84.855 31.6L88.095 9.6H94.575L88.655 42H81.095ZM97.8297 42V9.6H112.39V14.48H104.99V22.52H110.63V27.48H104.99V37.16H112.47V42H97.8297Z" fill="#FF6C2E"/>
<path d="M128.36 42.4C126.173 42.4 124.48 41.9467 123.28 41.04C122.107 40.1333 121.293 38.92 120.84 37.4C120.387 35.8533 120.16 34.1467 120.16 32.28V19.4C120.16 17.4 120.387 15.64 120.84 14.12C121.32 12.6 122.16 11.4133 123.36 10.56C124.56 9.70667 126.227 9.28 128.36 9.28C130.307 9.28 131.827 9.65333 132.92 10.4C134.04 11.1467 134.84 12.2133 135.32 13.6C135.8 14.96 136.04 16.5867 136.04 18.48V20.44H133.16V18.56C133.16 17.1467 133.04 15.9333 132.8 14.92C132.587 13.9067 132.133 13.12 131.44 12.56C130.747 12 129.733 11.72 128.4 11.72C126.933 11.72 125.827 12.0267 125.08 12.64C124.36 13.2267 123.867 14.0667 123.6 15.16C123.36 16.2533 123.24 17.52 123.24 18.96V32.76C123.24 34.36 123.387 35.6933 123.68 36.76C124 37.8267 124.533 38.6267 125.28 39.16C126.027 39.6933 127.067 39.96 128.4 39.96C129.76 39.96 130.773 39.6667 131.44 39.08C132.133 38.4933 132.587 37.68 132.8 36.64C133.04 35.5733 133.16 34.3333 133.16 32.92V30.8H136.04V32.72C136.04 34.6133 135.813 36.2933 135.36 37.76C134.933 39.2 134.16 40.3333 133.04 41.16C131.947 41.9867 130.387 42.4 128.36 42.4ZM148.481 42.4C146.321 42.4 144.628 41.9867 143.401 41.16C142.201 40.3067 141.348 39.1333 140.841 37.64C140.361 36.12 140.121 34.3867 140.121 32.44V19C140.121 17.0267 140.374 15.32 140.881 13.88C141.414 12.4133 142.281 11.28 143.481 10.48C144.708 9.68 146.374 9.28 148.481 9.28C150.561 9.28 152.201 9.68 153.401 10.48C154.628 11.28 155.494 12.4133 156.001 13.88C156.508 15.32 156.761 17.0267 156.761 19V32.48C156.761 34.4267 156.508 36.1467 156.001 37.64C155.521 39.1067 154.681 40.2667 153.481 41.12C152.281 41.9733 150.614 42.4 148.481 42.4ZM148.481 39.96C149.894 39.96 150.974 39.68 151.721 39.12C152.468 38.5333 152.974 37.7333 153.241 36.72C153.534 35.68 153.681 34.48 153.681 33.12V18.44C153.681 17.08 153.534 15.8933 153.241 14.88C152.974 13.8667 152.468 13.0933 151.721 12.56C150.974 12 149.894 11.72 148.481 11.72C147.041 11.72 145.934 12 145.161 12.56C144.414 13.0933 143.894 13.8667 143.601 14.88C143.334 15.8933 143.201 17.08 143.201 18.44V33.12C143.201 34.48 143.334 35.68 143.601 36.72C143.894 37.7333 144.414 38.5333 145.161 39.12C145.934 39.68 147.041 39.96 148.481 39.96ZM161.817 42V9.6H169.137C171.163 9.6 172.75 9.93333 173.897 10.6C175.07 11.24 175.91 12.1867 176.417 13.44C176.923 14.6667 177.177 16.1333 177.177 17.84C177.177 19.04 177.043 20.1733 176.777 21.24C176.51 22.3067 176.057 23.2133 175.417 23.96C174.777 24.7067 173.87 25.2 172.697 25.44L177.657 42H174.697L169.937 26.08H164.857V42H161.817ZM164.857 23.84H168.977C170.337 23.84 171.39 23.6133 172.137 23.16C172.883 22.7067 173.417 22.04 173.737 21.16C174.057 20.28 174.217 19.1733 174.217 17.84C174.217 15.84 173.87 14.3467 173.177 13.36C172.483 12.3733 171.11 11.88 169.057 11.88H164.857V23.84ZM182.245 42V9.6H193.965V11.96H185.325V24.12H192.365V26.36H185.325V39.72H194.045V42H182.245Z" fill="black"/>
</svg>
